<svg xmlns="http://www.w3.org/2000/svg" id="Capa_1" data-name="Capa 1" viewBox="0 0 200 59.72"><defs><style>.cls-1{fill:#fff;}</style></defs><polygon class="cls-1" points="33.52 25.93 25.08 34.37 8.19 34.37 8.19 25.93 25.08 25.93 25.08 17.49 33.52 25.93"></polygon><polygon class="cls-1" points="33.52 9.05 33.52 17.49 16.63 17.49 16.63 25.93 8.19 17.49 16.63 9.05 33.52 9.05"></polygon><path class="cls-1" d="M57.51,34.78a7.08,7.08,0,0,1-7-4.61l-.09-.24,3.85-2,.12.31a3.47,3.47,0,0,0,3.18,2.46c.47,0,2-.11,2-1.5,0-.66-.29-1.13-1.77-1.59l-2.08-.67c-3.07-1-4.62-2.78-4.62-5.29,0-3.25,2.63-5.6,6.26-5.6A7.08,7.08,0,0,1,64,20.13l.11.26-3.8,2.05-.14-.28A3.18,3.18,0,0,0,57.4,20c-.88,0-1.78.4-1.78,1.29,0,.68.58,1.21,1.73,1.58l2,.67c3.25,1.1,4.76,2.79,4.76,5.34C64.16,32.76,60.81,34.78,57.51,34.78Z"></path><polygon class="cls-1" points="67.77 41.7 71.13 33.45 63.69 16.42 68.5 16.42 73.44 28.17 78.12 16.42 82.94 16.42 72.48 41.7 67.77 41.7"></polygon><path class="cls-1" d="M96.24,34.36V24.42c0-2.58-1.26-4-3.54-4S88.94,22.2,88.94,25v9.41h-4.7V16.47h4.7v1.7a6.36,6.36,0,0,1,5-2.13c4.39,0,7,2.85,7,7.61V34.36Z"></path><path class="cls-1" d="M111.67,34.78c-4.9,0-8.73-4.11-8.73-9.37S106.77,16,111.67,16a7.48,7.48,0,0,1,5.56,2.25V16.47h4.62V34.36h-4.62v-2A7.51,7.51,0,0,1,111.67,34.78Zm.85-14.43a4.92,4.92,0,0,0-4.89,5.06,4.89,4.89,0,1,0,9.77,0A4.92,4.92,0,0,0,112.52,20.35Z"></path><path class="cls-1" d="M124.45,41.7V16.47h4.65v1.92A7.56,7.56,0,0,1,134.66,16c5,0,8.74,4,8.74,9.37s-3.84,9.37-8.74,9.37a7.51,7.51,0,0,1-5.56-2.24V41.7Zm9.37-21.35a4.92,4.92,0,0,0-4.89,5.06,4.89,4.89,0,1,0,9.77,0A4.92,4.92,0,0,0,133.82,20.35Z"></path><path class="cls-1" d="M151.4,34.78a7.07,7.07,0,0,1-7-4.61l-.1-.24,3.86-2,.12.31a3.47,3.47,0,0,0,3.17,2.46c.48,0,2-.11,2-1.5,0-.66-.29-1.13-1.76-1.59l-2.09-.67c-3.06-1-4.62-2.78-4.62-5.29,0-3.25,2.64-5.6,6.27-5.6a7.07,7.07,0,0,1,6.55,4.09l.12.26-3.81,2.05-.13-.28A3.19,3.19,0,0,0,151.3,20c-.89,0-1.78.4-1.78,1.29,0,.68.58,1.21,1.73,1.58l2.05.67c3.24,1.1,4.76,2.79,4.76,5.34C158.06,32.76,154.71,34.78,151.4,34.78Z"></path><path class="cls-1" d="M173.26,34.78a7.08,7.08,0,0,1-7-4.61l-.09-.24,3.85-2,.12.31a3.47,3.47,0,0,0,3.18,2.46c.47,0,2-.11,2-1.5,0-.66-.29-1.13-1.77-1.59l-2.08-.67c-3.07-1-4.62-2.78-4.62-5.29,0-3.25,2.63-5.6,6.26-5.6a7.08,7.08,0,0,1,6.56,4.09l.11.26L176,22.44l-.14-.28A3.19,3.19,0,0,0,173.15,20c-.89,0-1.78.4-1.78,1.29,0,.68.58,1.21,1.73,1.58l2.05.67c3.25,1.1,4.76,2.79,4.76,5.34C179.91,32.76,176.56,34.78,173.26,34.78Z"></path><path class="cls-1" d="M159.8,34.36V16.47h4.7V34.36Zm0-20.15V9.27h4.7v4.94Z"></path><path class="cls-1" d="M188.56,9.16a3,3,0,1,1-2.88,3A2.93,2.93,0,0,1,188.56,9.16Zm0,5.49a2.53,2.53,0,1,0-2.42-2.53A2.48,2.48,0,0,0,188.56,14.65Zm.38-2.31h0l1,1.3h-.53l-.88-1.24h-.38v1.24h-.44v-3h1c.61,0,1,.33,1,.89A.85.85,0,0,1,188.94,12.34Zm-.3-1.33h-.57v1h.57c.36,0,.59-.18.59-.5S189,11,188.64,11Z"></path><path class="cls-1" d="M178,51.78l-2.21-2.41h-.33v2.41H174V43.14h1.41v4.63h.33l2-2h1.77l-2.86,2.84,3,3.21Z"></path><path class="cls-1" d="M146.91,49.17V45.73h1.43v3.36c0,.95.46,1.51,1.25,1.51s1.26-.56,1.26-1.51V45.73h1.43v3.44a2.69,2.69,0,1,1-5.37,0Z"></path><path class="cls-1" d="M159.52,45.73v6.05h-1.41V50.9a2.49,2.49,0,0,1-2.05,1,3.17,3.17,0,0,1,0-6.33,2.45,2.45,0,0,1,2.05,1v-.83Zm-3.16,4.9a1.88,1.88,0,1,0-1.81-1.87A1.83,1.83,0,0,0,156.36,50.63Z"></path><path class="cls-1" d="M162.05,51.78h-1.43V45.73h1.43v.81a2.1,2.1,0,0,1,1.85-.95,2.25,2.25,0,0,1,2.34,2.55v3.64h-1.43V48.41c0-.94-.47-1.5-1.35-1.5s-1.41.65-1.41,1.68Z"></path><path class="cls-1" d="M167.91,51.78V46.94h-1V45.73h1V44h1.43v1.78h1.17v1.21h-1.17v4.84Z"></path><path class="cls-1" d="M171.35,44.66V43.14h1.43v1.52Zm1.43,1.07v6.05h-1.43V45.73Z"></path><path class="cls-1" d="M145.93,47.32a4.46,4.46,0,1,0-4.46,4.45h4.46l-1.3-1.3A4.47,4.47,0,0,0,145.93,47.32ZM139,49.8v-5h5v5Z"></path></svg>