<svg id="Layer_1" data-name="Layer 1" xmlns="http://www.w3.org/2000/svg" viewBox="0 0 200 60"><defs><style>.cls-1{fill:#fff;}.cls-2{fill:#ec242a;}</style></defs><path class="cls-1" d="M54.86,39.27,54,36.87h-.39a5.4,5.4,0,0,1-2.32,2,8.08,8.08,0,0,1-3.49.7,6.53,6.53,0,0,1-4.95-1.84,7.22,7.22,0,0,1-1.76-5.21V20h6.64V30.54a6.06,6.06,0,0,0,.53,2.85,1.85,1.85,0,0,0,1.77,1A2.53,2.53,0,0,0,52.5,33a10.4,10.4,0,0,0,.73-4.57V20h6.65V39.27Z"/><path class="cls-1" d="M75.61,19.57a4.3,4.3,0,0,0-3.74,2A9.55,9.55,0,0,0,70.53,27q0,7.17,5.46,7.17a11.49,11.49,0,0,0,3.19-.45,32.77,32.77,0,0,0,3.11-1.11v5.67a17.16,17.16,0,0,1-7,1.38c-3.76,0-6.63-1.09-8.63-3.26s-3-5.32-3-9.43a15,15,0,0,1,1.44-6.79,10.5,10.5,0,0,1,4.18-4.5,12.73,12.73,0,0,1,6.42-1.57,17.82,17.82,0,0,1,7.7,1.75l-2.06,5.3A22.47,22.47,0,0,0,78.56,20,9.82,9.82,0,0,0,75.61,19.57Z"/><path class="cls-1" d="M104.83,29.6A10.17,10.17,0,0,1,102.28,37a9.39,9.39,0,0,1-7.11,2.64,9.23,9.23,0,0,1-7-2.7A10.15,10.15,0,0,1,85.6,29.6a10.07,10.07,0,0,1,2.54-7.32,9.52,9.52,0,0,1,7.13-2.61,10.21,10.21,0,0,1,5,1.21,8.27,8.27,0,0,1,3.37,3.46A11.28,11.28,0,0,1,104.83,29.6Zm-12.48,0A8.6,8.6,0,0,0,93,33.38a2.31,2.31,0,0,0,2.23,1.3,2.22,2.22,0,0,0,2.18-1.3,8.74,8.74,0,0,0,.64-3.78,8.4,8.4,0,0,0-.64-3.72,2.56,2.56,0,0,0-4.41,0A8.16,8.16,0,0,0,92.35,29.6Z"/><path class="cls-1" d="M120.46,39.27V28.77a6,6,0,0,0-.55-2.89,1.89,1.89,0,0,0-1.78-1,2.55,2.55,0,0,0-2.41,1.34,10.12,10.12,0,0,0-.75,4.6v8.41h-6.64V20h5l.83,2.4h.39a5.27,5.27,0,0,1,2.36-2,8.38,8.38,0,0,1,3.46-.68,6.57,6.57,0,0,1,5,1.85,7.2,7.2,0,0,1,1.78,5.22V39.29Z"/><path class="cls-1" d="M140.75,34.36A10,10,0,0,0,144,33.7v4.84a13.33,13.33,0,0,1-2.55.83,15.16,15.16,0,0,1-2.85.24c-2.25,0-3.85-.54-4.82-1.64a7.63,7.63,0,0,1-1.48-5V25h-2.33v-2.7l3-2.09,1.71-4.05H139V20h4.73v5H139v7.5C139,33.74,139.55,34.36,140.75,34.36Z"/><path class="cls-1" d="M159.58,39.27l-1.27-2.55h-.14a7.43,7.43,0,0,1-2.74,2.3,9.05,9.05,0,0,1-3.6.62A5.64,5.64,0,0,1,147.55,38,6.31,6.31,0,0,1,146,33.41a5.25,5.25,0,0,1,2.14-4.58,11.72,11.72,0,0,1,6.21-1.69l3.21-.1v-.27a2.08,2.08,0,0,0-2.34-2.38,13.92,13.92,0,0,0-5.36,1.44l-1.93-4.38a18.45,18.45,0,0,1,8.5-1.74,8.25,8.25,0,0,1,5.74,1.84,6.56,6.56,0,0,1,2,5.13V39.27Zm-4.93-4.33a3,3,0,0,0,2.07-.76,2.57,2.57,0,0,0,.85-2V30.67l-1.53.07c-2.18.08-3.27.88-3.27,2.41,0,1.18.62,1.77,1.88,1.77Z"/><path class="cls-1" d="M177.17,39.61c-3.16,0-5.54-.85-7.17-2.55s-2.43-4.14-2.43-7.32.87-5.69,2.63-7.43,4.25-2.62,7.49-2.64A14.07,14.07,0,0,1,184,21.12L182.05,26a22.17,22.17,0,0,0-2.23-.84,7,7,0,0,0-2.13-.31,2.86,2.86,0,0,0-2.49,1.26,6.08,6.08,0,0,0-.89,3.55q0,4.62,3.42,4.62a10.3,10.3,0,0,0,5.61-1.7v5.3A10.94,10.94,0,0,1,177.17,39.61Z"/><path class="cls-1" d="M196.28,34.36a10.16,10.16,0,0,0,3.22-.66v4.84a13.43,13.43,0,0,1-2.56.83,15.09,15.09,0,0,1-2.85.24c-2.24,0-3.85-.54-4.81-1.64a7.58,7.58,0,0,1-1.48-5V25h-2.34v-2.7l3-2.09,1.71-4.05h4.33V20h4.73v5h-4.73v7.5C194.48,33.74,195.08,34.36,196.28,34.36Z"/><path class="cls-2" d="M3.62,43.84A3.12,3.12,0,0,1,.5,40.73h0V19.16a3.13,3.13,0,1,1,6.26,0V40.73a3.13,3.13,0,0,1-3.13,3.11Z"/><path class="cls-2" d="M14.38,48.65a3.11,3.11,0,0,1-3.12-3.11V14.47a3.13,3.13,0,1,1,6.25,0v31.1A3.1,3.1,0,0,1,14.38,48.65Z"/><path class="cls-2" d="M25.13,40.51A3.11,3.11,0,0,1,22,37.4h0V22.5a3.12,3.12,0,0,1,6.23,0V37.39a3.12,3.12,0,0,1-3.12,3.12Z"/></svg>